D:\school\WTK\thesis\model\3dpredictsim\Results\debug_batch\Pog_s1_tmt_aCst_d05_k2000_ig24_pas_GRF.mot
nRows=20
nColumns=19

name D:\school\WTK\thesis\model\3dpredictsim\Results\debug_batch\Pog_s1_tmt_aCst_d05_k2000_ig24_pas_GRF.mot
datacolumns 19
datarows 20
range 0.0000000000 0.2095149992
endheader
time 	ground_force_vx	ground_force_vy	ground_force_vz	ground_force_px	ground_force_py	ground_force_pz	1_ground_force_vx	1_ground_force_vy	1_ground_force_vz	1_ground_force_px	1_ground_force_py	1_ground_force_pz	ground_torque_x	ground_torque_y	ground_torque_z	1_ground_torque_x	1_ground_torque_y	1_ground_torque_z
        0.0000000000	      -75.7795319015	       60.6475891228	       26.2149978420	        0.1727025261	        0.0000000000	        0.0387844414	      101.8326509029	      530.9194630297	       -3.1198148075	       -0.3102072966	        0.0000000000	       -0.0360793530	        0.0000000000	        0.0000000000	        0.0000000000	        0.0000000000	        0.0000000000	        0.0000000000	
        0.0110271052	     -119.7354859112	      133.1989530655	       66.9369291114	        0.1805100051	        0.0000000000	        0.0364712696	       86.4523959130	      454.2408531386	       -7.0408914752	       -0.3071183259	        0.0000000000	       -0.0352745935	        0.0000000000	        0.0000000000	        0.0000000000	        0.0000000000	        0.0000000000	        0.0000000000	
        0.0220542104	      -46.5032371113	      263.6452827065	       33.9421724080	        0.1863207869	        0.0000000000	        0.0340958527	       69.9330815358	      368.8019610914	       -8.9867624939	       -0.3025527876	        0.0000000000	       -0.0337838166	        0.0000000000	        0.0000000000	        0.0000000000	        0.0000000000	        0.0000000000	        0.0000000000	
        0.0330813157	      -37.0337444285	      409.0716908415	        5.3346182479	        0.1896642018	        0.0000000000	        0.0338588157	       48.4412691826	      277.6853927617	       -5.5598960903	       -0.2952908191	        0.0000000000	       -0.0308382152	        0.0000000000	        0.0000000000	        0.0000000000	        0.0000000000	        0.0000000000	        0.0000000000	
        0.0441084209	      -66.4273933594	      584.6266887957	       -4.2052289996	        0.1972744460	        0.0000000000	        0.0360930222	       20.7826300994	      180.7153900034	       -7.3310053601	       -0.2816991679	        0.0000000000	       -0.0246745767	        0.0000000000	        0.0000000000	        0.0000000000	        0.0000000000	        0.0000000000	        0.0000000000	
        0.0551355261	      -94.0634396218	      731.2555804380	      -10.2845656507	        0.2040913668	        0.0000000000	        0.0381478683	        4.7789868379	      133.8461625277	      -11.6916082742	       -0.2729971352	        0.0000000000	       -0.0202538336	        0.0000000000	        0.0000000000	        0.0000000000	        0.0000000000	        0.0000000000	        0.0000000000	
        0.0661626313	     -106.4260360386	      805.3400708025	      -12.0469681898	        0.2087358270	        0.0000000000	        0.0394321541	        1.8761820681	      102.9052907523	      -12.4024869813	       -0.2725512250	        0.0000000000	       -0.0203639683	        0.0000000000	        0.0000000000	        0.0000000000	        0.0000000000	        0.0000000000	        0.0000000000	
        0.0771897365	     -105.5811534756	      822.2549853462	      -12.6419811614	        0.2121330270	        0.0000000000	        0.0402102810	       -2.5741547514	       66.5384025830	      -11.2971179757	       -0.2721310887	        0.0000000000	       -0.0204101354	        0.0000000000	        0.0000000000	        0.0000000000	        0.0000000000	        0.0000000000	        0.0000000000	
        0.0882168418	      -98.9557929594	      812.0263793167	      -12.6728129231	        0.2151767936	        0.0000000000	        0.0406666528	       -8.2376021248	       27.0897898867	       -5.6265048713	       -0.2725066802	        0.0000000000	       -0.0201198812	        0.0000000000	        0.0000000000	        0.0000000000	        0.0000000000	        0.0000000000	        0.0000000000	
        0.0992439470	      -89.6388861207	      794.8169957037	      -13.2590233170	        0.2184281986	        0.0000000000	        0.0408868730	        0.0982109552	       -0.0969618727	        0.0022148206	        0.0000000000	        0.0000000000	        0.0000000000	        0.0000000000	        0.0000000000	        0.0000000000	        0.0000000000	        0.0000000000	        0.0000000000	
        0.1102710522	      -78.1259862945	      769.1530440399	      -14.1554841564	        0.2218636920	        0.0000000000	        0.0409923506	        0.0002078138	       -0.0001684547	       -0.0000112771	        0.0000000000	        0.0000000000	        0.0000000000	        0.0000000000	        0.0000000000	        0.0000000000	        0.0000000000	        0.0000000000	        0.0000000000	
        0.1212981574	      -68.2677125342	      741.5995055615	      -14.6588255367	        0.2260194925	        0.0000000000	        0.0409974474	        0.0000830512	       -0.0000584133	       -0.0000060447	        0.0000000000	        0.0000000000	        0.0000000000	        0.0000000000	        0.0000000000	        0.0000000000	        0.0000000000	        0.0000000000	        0.0000000000	
        0.1323252626	      -59.2384396387	      713.7166041897	      -15.0998711696	        0.2305267528	        0.0000000000	        0.0409255157	        0.0008017762	       -0.0005053431	       -0.0000653156	        0.0000000000	        0.0000000000	        0.0000000000	        0.0000000000	        0.0000000000	        0.0000000000	        0.0000000000	        0.0000000000	        0.0000000000	
        0.1433523678	      -50.0554833494	      684.9869915670	      -15.6525452709	        0.2349392165	        0.0000000000	        0.0408872789	        0.0045911107	       -0.0026516625	       -0.0003969461	        0.0000000000	        0.0000000000	        0.0000000000	        0.0000000000	        0.0000000000	        0.0000000000	        0.0000000000	        0.0000000000	        0.0000000000	
        0.1543794731	      -41.5486931110	      657.9929852218	      -16.2359010346	        0.2393177281	        0.0000000000	        0.0409080599	       -0.0307471498	        0.0165207641	        0.0027675489	        0.0000000000	        0.0000000000	        0.0000000000	        0.0000000000	        0.0000000000	        0.0000000000	        0.0000000000	        0.0000000000	        0.0000000000	
        0.1654065783	      -34.2885786532	      634.7279300831	      -16.7587933391	        0.2437045736	        0.0000000000	        0.0409710103	       -0.0209387705	        0.0105842708	        0.0019416860	        0.0000000000	        0.0000000000	        0.0000000000	        0.0000000000	        0.0000000000	        0.0000000000	        0.0000000000	        0.0000000000	        0.0000000000	
        0.1764336835	      -28.0775528870	      615.5726758161	      -17.3198017959	        0.2481570947	        0.0000000000	        0.0410563528	       -0.0147048910	        0.0070553743	        0.0013931447	        0.0000000000	        0.0000000000	        0.0000000000	        0.0000000000	        0.0000000000	        0.0000000000	        0.0000000000	        0.0000000000	        0.0000000000	
        0.1874607887	      -22.8507489704	      600.9155235052	      -17.7084916311	        0.2529327337	        0.0000000000	        0.0411425026	       -0.0133188119	        0.0061117915	        0.0012783232	        0.0000000000	        0.0000000000	        0.0000000000	        0.0000000000	        0.0000000000	        0.0000000000	        0.0000000000	        0.0000000000	        0.0000000000	
        0.1984878939	      -19.0998508833	      591.0044376179	      -17.7862116053	        0.2580685346	        0.0000000000	        0.0412034961	       -0.0160816233	        0.0070988392	        0.0015524843	        0.0000000000	        0.0000000000	        0.0000000000	        0.0000000000	        0.0000000000	        0.0000000000	        0.0000000000	        0.0000000000	        0.0000000000	
        0.2095149992	      -16.0608202251	      584.9778127690	      -17.7381770880	        0.2635557205	        0.0000000000	        0.0412188180	       -0.0249206362	        0.0106320643	        0.0023970856	        0.0000000000	        0.0000000000	        0.0000000000	        0.0000000000	        0.0000000000	        0.0000000000	        0.0000000000	        0.0000000000	        0.0000000000	
